<svg width="854" height="240" viewBox="0 0 854 240" fill="none" xmlns="http://www.w3.org/2000/svg">
<path d="M51.9053 201.944V71.5481H65.4375V201.944H116.675V71.5481H130.196V201.944H181.446V37.5686H130.196V50.7122L129.059 49.5725L117.065 37.5686H65.4375V50.7102L52.2959 37.5686H0.666992V201.944H51.9053Z" fill="#1E1E1E" stroke="#1E1E1E" stroke-width="1.33333"/>
<path d="M207.653 37.1818H225.858L245.085 84.0909H245.903L265.13 37.1818H283.335V107H269.017V61.5568H268.437L250.369 106.659H240.619L222.551 61.3864H221.971V107H207.653V37.1818ZM305.323 107H289.505L313.607 37.1818H332.63L356.698 107H340.88L323.391 53.1364H322.846L305.323 107ZM304.334 79.5568H341.698V91.0795H304.334V79.5568ZM421.291 37.1818V107H408.541L378.166 63.0568H377.655V107H362.893V37.1818H375.848L405.984 81.0909H406.598V37.1818H421.291ZM428.62 49.3523V37.1818H485.961V49.3523H464.586V107H449.995V49.3523H428.62ZM554.168 72.0909C554.168 79.7045 552.725 86.1818 549.838 91.5227C546.975 96.8636 543.065 100.943 538.111 103.761C533.179 106.557 527.634 107.955 521.475 107.955C515.27 107.955 509.702 106.545 504.77 103.727C499.838 100.909 495.94 96.8295 493.077 91.4886C490.213 86.1477 488.781 79.6818 488.781 72.0909C488.781 64.4773 490.213 58 493.077 52.6591C495.94 47.3182 499.838 43.25 504.77 40.4545C509.702 37.6364 515.27 36.2273 521.475 36.2273C527.634 36.2273 533.179 37.6364 538.111 40.4545C543.065 43.25 546.975 47.3182 549.838 52.6591C552.725 58 554.168 64.4773 554.168 72.0909ZM539.202 72.0909C539.202 67.1591 538.463 63 536.986 59.6136C535.531 56.2273 533.475 53.6591 530.815 51.9091C528.156 50.1591 525.043 49.2841 521.475 49.2841C517.906 49.2841 514.793 50.1591 512.134 51.9091C509.475 53.6591 507.406 56.2273 505.929 59.6136C504.475 63 503.747 67.1591 503.747 72.0909C503.747 77.0227 504.475 81.1818 505.929 84.5682C507.406 87.9545 509.475 90.5227 512.134 92.2727C514.793 94.0227 517.906 94.8977 521.475 94.8977C525.043 94.8977 528.156 94.0227 530.815 92.2727C533.475 90.5227 535.531 87.9545 536.986 84.5682C538.463 81.1818 539.202 77.0227 539.202 72.0909ZM600.769 57.2614C600.497 54.5114 599.326 52.375 597.258 50.8523C595.19 49.3295 592.383 48.5682 588.838 48.5682C586.428 48.5682 584.394 48.9091 582.735 49.5909C581.076 50.25 579.803 51.1705 578.917 52.3523C578.053 53.5341 577.622 54.875 577.622 56.375C577.576 57.625 577.838 58.7159 578.406 59.6477C578.997 60.5795 579.803 61.3864 580.826 62.0682C581.849 62.7273 583.031 63.3068 584.372 63.8068C585.713 64.2841 587.144 64.6932 588.667 65.0341L594.94 66.5341C597.985 67.2159 600.781 68.125 603.326 69.2614C605.872 70.3977 608.076 71.7955 609.94 73.4545C611.803 75.1136 613.247 77.0682 614.269 79.3182C615.315 81.5682 615.849 84.1477 615.872 87.0568C615.849 91.3295 614.758 95.0341 612.599 98.1705C610.463 101.284 607.372 103.705 603.326 105.432C599.303 107.136 594.451 107.989 588.769 107.989C583.133 107.989 578.224 107.125 574.042 105.398C569.883 103.67 566.633 101.114 564.292 97.7273C561.974 94.3182 560.758 90.1023 560.644 85.0795H574.928C575.088 87.4205 575.758 89.375 576.94 90.9432C578.144 92.4886 579.747 93.6591 581.747 94.4545C583.769 95.2273 586.053 95.6136 588.599 95.6136C591.099 95.6136 593.269 95.25 595.11 94.5227C596.974 93.7955 598.417 92.7841 599.44 91.4886C600.463 90.1932 600.974 88.7045 600.974 87.0227C600.974 85.4545 600.508 84.1364 599.576 83.0682C598.667 82 597.326 81.0909 595.553 80.3409C593.803 79.5909 591.656 78.9091 589.11 78.2955L581.508 76.3864C575.622 74.9545 570.974 72.7159 567.565 69.6705C564.156 66.625 562.463 62.5227 562.485 57.3636C562.463 53.1364 563.588 49.4432 565.86 46.2841C568.156 43.125 571.303 40.6591 575.303 38.8864C579.303 37.1136 583.849 36.2273 588.94 36.2273C594.122 36.2273 598.644 37.1136 602.508 38.8864C606.394 40.6591 609.417 43.125 611.576 46.2841C613.735 49.4432 614.849 53.1023 614.917 57.2614H600.769ZM638.354 37.1818V107H623.593V37.1818H638.354ZM706.689 37.1818V107H693.939L663.564 63.0568H663.052V107H648.291V37.1818H661.245L691.382 81.0909H691.995V37.1818H706.689ZM741.427 107H716.677V37.1818H741.631C748.654 37.1818 754.699 38.5795 759.768 41.375C764.836 44.1477 768.733 48.1364 771.461 53.3409C774.211 58.5455 775.586 64.7727 775.586 72.0227C775.586 79.2955 774.211 85.5455 771.461 90.7727C768.733 96 764.813 100.011 759.699 102.807C754.608 105.602 748.518 107 741.427 107ZM731.438 94.3523H740.813C745.177 94.3523 748.847 93.5795 751.824 92.0341C754.824 90.4659 757.074 88.0455 758.574 84.7727C760.097 81.4773 760.858 77.2273 760.858 72.0227C760.858 66.8636 760.097 62.6477 758.574 59.375C757.074 56.1023 754.836 53.6932 751.858 52.1477C748.881 50.6023 745.211 49.8295 740.847 49.8295H731.438V94.3523ZM848.471 72.0909C848.471 79.7045 847.028 86.1818 844.142 91.5227C841.278 96.8636 837.369 100.943 832.415 103.761C827.483 106.557 821.937 107.955 815.778 107.955C809.574 107.955 804.006 106.545 799.074 103.727C794.142 100.909 790.244 96.8295 787.381 91.4886C784.517 86.1477 783.085 79.6818 783.085 72.0909C783.085 64.4773 784.517 58 787.381 52.6591C790.244 47.3182 794.142 43.25 799.074 40.4545C804.006 37.6364 809.574 36.2273 815.778 36.2273C821.937 36.2273 827.483 37.6364 832.415 40.4545C837.369 43.25 841.278 47.3182 844.142 52.6591C847.028 58 848.471 64.4773 848.471 72.0909ZM833.506 72.0909C833.506 67.1591 832.767 63 831.29 59.6136C829.835 56.2273 827.778 53.6591 825.119 51.9091C822.46 50.1591 819.346 49.2841 815.778 49.2841C812.21 49.2841 809.096 50.1591 806.437 51.9091C803.778 53.6591 801.71 56.2273 800.233 59.6136C798.778 63 798.051 67.1591 798.051 72.0909C798.051 77.0227 798.778 81.1818 800.233 84.5682C801.71 87.9545 803.778 90.5227 806.437 92.2727C809.096 94.0227 812.21 94.8977 815.778 94.8977C819.346 94.8977 822.46 94.0227 825.119 92.2727C827.778 90.5227 829.835 87.9545 831.29 84.5682C832.767 81.1818 833.506 77.0227 833.506 72.0909Z" fill="#1E1E1E"/>
<path d="M209.255 133.182H222.04L244.267 187.455H245.085L267.312 133.182H280.096V203H270.074V152.477H269.426L248.835 202.898H240.517L219.926 152.443H219.278V203H209.255V133.182ZM338.101 133.182H348.67V179.102C348.67 183.989 347.522 188.318 345.226 192.091C342.931 195.841 339.704 198.795 335.545 200.955C331.385 203.091 326.51 204.159 320.92 204.159C315.351 204.159 310.488 203.091 306.329 200.955C302.17 198.795 298.942 195.841 296.647 192.091C294.351 188.318 293.204 183.989 293.204 179.102V133.182H303.738V178.25C303.738 181.409 304.431 184.216 305.817 186.67C307.226 189.125 309.215 191.057 311.783 192.466C314.351 193.852 317.397 194.545 320.92 194.545C324.465 194.545 327.522 193.852 330.09 192.466C332.681 191.057 334.658 189.125 336.022 186.67C337.408 184.216 338.101 181.409 338.101 178.25V133.182ZM361.777 203V133.182H372.311V193.932H403.947V203H361.777ZM401.219 142.25V133.182H455.254V142.25H433.469V203H422.969V142.25H401.219ZM475.52 133.182V203H464.986V133.182H475.52ZM488.653 133.182H501.437L523.664 187.455H524.482L546.71 133.182H559.494V203H549.471V152.477H548.823L528.232 202.898H519.914L499.323 152.443H498.676V203H488.653V133.182ZM572.601 203V133.182H616.374V142.25H583.135V163.523H614.09V172.557H583.135V193.932H616.783V203H572.601ZM650.839 203H628.237V133.182H651.555C658.396 133.182 664.271 134.58 669.18 137.375C674.089 140.148 677.851 144.136 680.464 149.341C683.101 154.523 684.419 160.739 684.419 167.989C684.419 175.261 683.089 181.511 680.43 186.739C677.794 191.966 673.976 195.989 668.976 198.807C663.976 201.602 657.93 203 650.839 203ZM638.771 193.795H650.26C655.578 193.795 659.998 192.795 663.521 190.795C667.044 188.773 669.68 185.852 671.43 182.034C673.18 178.193 674.055 173.511 674.055 167.989C674.055 162.511 673.18 157.864 671.43 154.045C669.703 150.227 667.123 147.33 663.691 145.352C660.26 143.375 655.998 142.386 650.907 142.386H638.771V193.795ZM705.844 133.182V203H695.31V133.182H705.844ZM724.875 203H713.693L738.818 133.182H750.989L776.114 203H764.932L745.193 145.864H744.648L724.875 203ZM726.75 175.659H763.023V184.523H726.75V175.659Z" fill="#1E1E1E"/>
</svg>
